<svg xmlns="http://www.w3.org/2000/svg"  viewBox="0 0 72 72" width="64px" height="64px"><path d="M36,12c13.255,0,24,10.745,24,24S49.255,60,36,60c-4.248,0-8.235-1.108-11.697-3.044l-12.069,2.7l3.071-11.505	C13.208,44.586,12,40.435,12,36C12,22.745,22.745,12,36,12z M45.919,43.256c0.421-1.169,0.421-2.17,0.29-2.382	c-0.128-0.203-0.46-0.328-0.968-0.579c-0.508-0.251-2.996-1.464-3.463-1.629c-0.46-0.165-0.801-0.251-1.133,0.251	c-0.341,0.502-1.307,1.63-1.608,1.958c-0.292,0.337-0.585,0.376-1.093,0.125s-2.14-0.776-4.073-2.483	c-1.504-1.323-2.518-2.96-2.811-3.461c-0.293-0.501-0.032-0.775,0.221-1.026c0.23-0.219,0.508-0.579,0.761-0.869	c0.245-0.298,0.332-0.502,0.499-0.839c0.175-0.328,0.087-0.626-0.039-0.877c-0.126-0.251-1.109-2.725-1.561-3.712	c-0.379-0.83-0.777-0.854-1.141-0.862c-0.295-0.015-0.636-0.015-0.968-0.015c-0.341,0-0.888,0.124-1.354,0.626	c-0.458,0.502-1.766,1.709-1.766,4.176c0,2.458,1.807,4.84,2.061,5.168c0.254,0.337,3.501,5.552,8.651,7.557	c4.27,1.661,5.142,1.332,6.077,1.246C43.431,45.55,45.498,44.422,45.919,43.256z"/></svg>